<svg width="242" height="42" viewBox="0 0 242 42" fill="none" xmlns="http://www.w3.org/2000/svg">
<path d="M24.8709 27.3097C23.654 28.6222 22.1781 29.5245 20.4629 30.0283C20.385 30.0512 20.363 30.085 20.363 30.1641C20.3653 32.8264 20.3659 35.4888 20.3649 38.1511H17.6953V22.649H20.3618V27.2242C24.9785 25.4258 26.3518 19.2867 22.8835 15.7211C22.1806 14.9522 21.3295 14.3879 20.364 13.9991C20.3134 13.9783 20.2827 13.96 20.2827 13.8943C20.2889 12.9737 20.2771 12.055 20.2886 11.1348C27.3805 13.0729 29.9099 21.9359 24.8709 27.3097Z" fill="url(#paint0_linear_6903_4077)"/>
<path d="M15.1631 27.3522C15.1597 28.2566 15.1613 29.157 15.161 30.0624C8.37881 28.2225 5.66583 19.9732 10.0584 14.4861C11.3193 12.8938 13.0478 11.737 15.0007 11.1784C15.0862 11.1549 15.0797 11.1065 15.0797 11.0461C15.0841 8.38206 15.0707 5.71806 15.0844 3.05469H17.7602C17.7741 8.22207 17.7602 13.3898 17.7651 18.5575H15.0853V13.9897C10.4655 15.7496 9.08667 21.9581 12.5639 25.486C13.2597 26.244 14.1009 26.8031 15.0552 27.1879C15.1396 27.2216 15.1634 27.2641 15.1631 27.3522Z" fill="url(#paint1_linear_6903_4077)"/>
<path d="M60.65 4.1C64.3167 4.1 67.5333 4.81667 70.3 6.25C73.1 7.68333 75.25 9.73333 76.75 12.4C78.2833 15.0333 79.05 18.1 79.05 21.6C79.05 25.1 78.2833 28.1667 76.75 30.8C75.25 33.4 73.1 35.4167 70.3 36.85C67.5333 38.2833 64.3167 39 60.65 39H48.45V4.1H60.65ZM60.4 33.05C64.0667 33.05 66.9 32.05 68.9 30.05C70.9 28.05 71.9 25.2333 71.9 21.6C71.9 17.9667 70.9 15.1333 68.9 13.1C66.9 11.0333 64.0667 10 60.4 10H55.45V33.05H60.4ZM110.29 24.55C110.29 25.55 110.223 26.45 110.09 27.25H89.8398C90.0065 29.25 90.7065 30.8167 91.9398 31.95C93.1732 33.0833 94.6898 33.65 96.4898 33.65C99.0898 33.65 100.94 32.5333 102.04 30.3H109.59C108.79 32.9667 107.257 35.1667 104.99 36.9C102.723 38.6 99.9398 39.45 96.6398 39.45C93.9732 39.45 91.5732 38.8667 89.4398 37.7C87.3398 36.5 85.6898 34.8167 84.4898 32.65C83.3232 30.4833 82.7398 27.9833 82.7398 25.15C82.7398 22.2833 83.3232 19.7667 84.4898 17.6C85.6565 15.4333 87.2898 13.7667 89.3898 12.6C91.4898 11.4333 93.9065 10.85 96.6398 10.85C99.2732 10.85 101.623 11.4167 103.69 12.55C105.79 13.6833 107.407 15.3 108.54 17.4C109.707 19.4667 110.29 21.85 110.29 24.55ZM103.04 22.55C103.007 20.75 102.357 19.3167 101.09 18.25C99.8232 17.15 98.2732 16.6 96.4398 16.6C94.7065 16.6 93.2398 17.1333 92.0398 18.2C90.8732 19.2333 90.1565 20.6833 89.8898 22.55H103.04ZM141.099 14.9C141.099 16.7667 140.649 18.5167 139.749 20.15C138.883 21.7833 137.499 23.1 135.599 24.1C133.733 25.1 131.366 25.6 128.499 25.6H122.649V39H115.649V4.1H128.499C131.199 4.1 133.499 4.56667 135.399 5.5C137.299 6.43333 138.716 7.71667 139.649 9.35C140.616 10.9833 141.099 12.8333 141.099 14.9ZM128.199 19.95C130.133 19.95 131.566 19.5167 132.499 18.65C133.433 17.75 133.899 16.5 133.899 14.9C133.899 11.5 131.999 9.8 128.199 9.8H122.649V19.95H128.199ZM144.519 25.05C144.519 22.25 145.069 19.7667 146.169 17.6C147.302 15.4333 148.819 13.7667 150.719 12.6C152.652 11.4333 154.802 10.85 157.169 10.85C159.236 10.85 161.036 11.2667 162.569 12.1C164.136 12.9333 165.386 13.9833 166.319 15.25V11.3H173.369V39H166.319V34.95C165.419 36.25 164.169 37.3333 162.569 38.2C161.002 39.0333 159.186 39.45 157.119 39.45C154.786 39.45 152.652 38.85 150.719 37.65C148.819 36.45 147.302 34.7667 146.169 32.6C145.069 30.4 144.519 27.8833 144.519 25.05ZM166.319 25.15C166.319 23.45 165.986 22 165.319 20.8C164.652 19.5667 163.752 18.6333 162.619 18C161.486 17.3333 160.269 17 158.969 17C157.669 17 156.469 17.3167 155.369 17.95C154.269 18.5833 153.369 19.5167 152.669 20.75C152.002 21.95 151.669 23.3833 151.669 25.05C151.669 26.7167 152.002 28.1833 152.669 29.45C153.369 30.6833 154.269 31.6333 155.369 32.3C156.502 32.9667 157.702 33.3 158.969 33.3C160.269 33.3 161.486 32.9833 162.619 32.35C163.752 31.6833 164.652 30.75 165.319 29.55C165.986 28.3167 166.319 26.85 166.319 25.15ZM191.056 39.45C188.789 39.45 186.756 39.05 184.956 38.25C183.156 37.4167 181.723 36.3 180.656 34.9C179.623 33.5 179.056 31.95 178.956 30.25H186.006C186.139 31.3167 186.656 32.2 187.556 32.9C188.489 33.6 189.639 33.95 191.006 33.95C192.339 33.95 193.373 33.6833 194.106 33.15C194.873 32.6167 195.256 31.9333 195.256 31.1C195.256 30.2 194.789 29.5333 193.856 29.1C192.956 28.6333 191.506 28.1333 189.506 27.6C187.439 27.1 185.739 26.5833 184.406 26.05C183.106 25.5167 181.973 24.7 181.006 23.6C180.073 22.5 179.606 21.0167 179.606 19.15C179.606 17.6167 180.039 16.2167 180.906 14.95C181.806 13.6833 183.073 12.6833 184.706 11.95C186.373 11.2167 188.323 10.85 190.556 10.85C193.856 10.85 196.489 11.6833 198.456 13.35C200.423 14.9833 201.506 17.2 201.706 20H195.006C194.906 18.9 194.439 18.0333 193.606 17.4C192.806 16.7333 191.723 16.4 190.356 16.4C189.089 16.4 188.106 16.6333 187.406 17.1C186.739 17.5667 186.406 18.2167 186.406 19.05C186.406 19.9833 186.873 20.7 187.806 21.2C188.739 21.6667 190.189 22.15 192.156 22.65C194.156 23.15 195.806 23.6667 197.106 24.2C198.406 24.7333 199.523 25.5667 200.456 26.7C201.423 27.8 201.923 29.2667 201.956 31.1C201.956 32.7 201.506 34.1333 200.606 35.4C199.739 36.6667 198.473 37.6667 196.806 38.4C195.173 39.1 193.256 39.45 191.056 39.45ZM218.552 39.45C216.285 39.45 214.252 39.05 212.452 38.25C210.652 37.4167 209.219 36.3 208.152 34.9C207.119 33.5 206.552 31.95 206.452 30.25H213.502C213.635 31.3167 214.152 32.2 215.052 32.9C215.985 33.6 217.135 33.95 218.502 33.95C219.835 33.95 220.869 33.6833 221.602 33.15C222.369 32.6167 222.752 31.9333 222.752 31.1C222.752 30.2 222.285 29.5333 221.352 29.1C220.452 28.6333 219.002 28.1333 217.002 27.6C214.935 27.1 213.235 26.5833 211.902 26.05C210.602 25.5167 209.469 24.7 208.502 23.6C207.569 22.5 207.102 21.0167 207.102 19.15C207.102 17.6167 207.535 16.2167 208.402 14.95C209.302 13.6833 210.569 12.6833 212.202 11.95C213.869 11.2167 215.819 10.85 218.052 10.85C221.352 10.85 223.985 11.6833 225.952 13.35C227.919 14.9833 229.002 17.2 229.202 20H222.502C222.402 18.9 221.935 18.0333 221.102 17.4C220.302 16.7333 219.219 16.4 217.852 16.4C216.585 16.4 215.602 16.6333 214.902 17.1C214.235 17.5667 213.902 18.2167 213.902 19.05C213.902 19.9833 214.369 20.7 215.302 21.2C216.235 21.6667 217.685 22.15 219.652 22.65C221.652 23.15 223.302 23.6667 224.602 24.2C225.902 24.7333 227.019 25.5667 227.952 26.7C228.919 27.8 229.419 29.2667 229.452 31.1C229.452 32.7 229.002 34.1333 228.102 35.4C227.235 36.6667 225.969 37.6667 224.302 38.4C222.669 39.1 220.752 39.45 218.552 39.45Z" fill="url(#paint2_linear_6903_4077)"/>
<defs>
<linearGradient id="paint0_linear_6903_4077" x1="3.28876" y1="38.1512" x2="33.9222" y2="46.9124" gradientUnits="userSpaceOnUse">
<stop stop-color="#FFB600"/>
<stop offset="0.520833" stop-color="#E032E6"/>
<stop offset="1" stop-color="#2800D7"/>
</linearGradient>
<linearGradient id="paint1_linear_6903_4077" x1="-6.52761" y1="30.0625" x2="24.1818" y2="38.8744" gradientUnits="userSpaceOnUse">
<stop stop-color="#FFB600"/>
<stop offset="0.520833" stop-color="#E032E6"/>
<stop offset="1" stop-color="#2800D7"/>
</linearGradient>
<linearGradient id="paint2_linear_6903_4077" x1="-229.468" y1="32.0001" x2="-215.675" y2="124.295" gradientUnits="userSpaceOnUse">
<stop stop-color="#FFB600"/>
<stop offset="0.520833" stop-color="#E032E6"/>
<stop offset="1" stop-color="#2800D7"/>
</linearGradient>
</defs>
</svg>
