<svg width="16" height="17" viewBox="0 0 16 17" fill="none" xmlns="http://www.w3.org/2000/svg">
<g clip-path="url(#clip0_8654_2450)">
<path d="M11.2191 11.4569C10.7023 12.0143 10.0756 12.3974 9.34717 12.6114C9.31412 12.6211 9.30477 12.6355 9.30477 12.6691C9.30574 13.7997 9.306 14.9303 9.30556 16.0609H8.17188V9.47763H9.30425V11.4206C11.2648 10.6569 11.848 8.04978 10.3751 6.53557C10.0766 6.20902 9.71519 5.96938 9.30517 5.80427C9.28371 5.79545 9.27067 5.78768 9.27067 5.75976C9.2733 5.36883 9.2683 4.97869 9.27317 4.58789C12.2849 5.41097 13.3591 9.17478 11.2191 11.4569Z" fill="white"/>
<path d="M7.09077 11.4747C7.08932 11.8587 7.08998 12.2411 7.08984 12.6256C4.20967 11.8443 3.05755 8.34101 4.92293 6.01083C5.45841 5.33462 6.19246 4.84334 7.02177 4.60616C7.05811 4.59616 7.05535 4.57562 7.05535 4.54994C7.05719 3.41862 7.05153 2.2873 7.05732 1.15625H8.19364C8.19957 3.35068 8.19364 5.54524 8.19575 7.7398H7.05772V5.80002C5.09582 6.54739 4.51028 9.18397 5.98697 10.6821C6.28244 11.0041 6.63966 11.2415 7.04494 11.4049C7.08076 11.4192 7.0909 11.4373 7.09077 11.4747Z" fill="white"/>
</g>
<defs>
<clipPath id="clip0_8654_2450">
<rect width="15.05" height="15.8005" fill="white" transform="translate(0.648438 0.708984)"/>
</clipPath>
</defs>
</svg>
