<svg width="53" height="39" viewBox="0 0 53 39" fill="none" xmlns="http://www.w3.org/2000/svg">
<path d="M1.89062 11.8027L26.2571 38.8915L12.2231 11.8027H1.89062Z" fill="#605F5F"/>
<path d="M22.9065 0.00731854C22.9065 0.230228 12.2031 11.8043 12.2031 11.8043H30.8461C30.8461 11.8043 22.9065 -0.289214 22.9065 0.00731854Z" fill="#ADADAD"/>
<path d="M30.8461 11.8027H12.2031L26.2528 38.8915L30.8461 11.8027Z" fill="#A0A0A0"/>
<path d="M34.5248 0.00195312C34.5248 0.00195312 30.8516 11.9528 30.8516 11.8042C31.3083 11.8042 46.6096 11.8042 46.6096 11.8042L34.5248 0.00195312Z" fill="#424242"/>
<path d="M28.8685 0.00195312L22.9062 0.00723846L30.8459 11.8042L28.8685 0.00195312Z" fill="#858584"/>
<path d="M28.86 0.015625L34.5312 0.0209103L30.8374 11.8179L28.86 0.015625Z" fill="#3B3A3A"/>
<path d="M52.1509 11.8008H46.5935L26.2422 38.8896L52.1509 11.8008Z" fill="#B4B4B4"/>
<path d="M41.6094 0.0078125L46.5905 11.8031H52.1479L41.6094 0.0078125Z" fill="#A2A2A2"/>
<path d="M1.89004 11.8027H0.015625L26.2565 38.8915L1.89004 11.8027Z" fill="#3A3A39"/>
<path d="M13.0299 0.00976562L1.89844 11.8025H12.2153L13.0299 0.00976562Z" fill="#7E7D7E"/>
<path d="M13.4108 0.00591162L11.2683 0.00195312L1.89062 11.8055L13.4108 0.00591162Z" fill="#A2A2A2"/>
<path d="M22.9065 0.00917215L14.9715 0.00390625L12.2031 11.8049L22.9065 0.00917215Z" fill="#848484"/>
<path d="M34.5522 0.0078125H41.6445L46.6328 11.8085L34.5522 0.0078125Z" fill="#626262"/>
<path d="M12.8654 0.00390625L12.2031 11.8048L14.9818 0.0105625L12.8654 0.00390625Z" fill="#D3D2D2"/>
<path d="M11.3092 0.0078125L0.015625 11.8027H1.89004L11.3092 0.0078125Z" fill="#636363"/>
<path d="M1.89004 11.8047H0.015625L26.2565 38.8935L1.89004 11.8047Z" fill="#3D3D3D"/>
<path d="M46.4653 11.8047L30.7499 11.8153L26.2422 38.8935L46.4653 11.8047Z" fill="#585858"/>
</svg>
