<svg width="40" height="40" viewBox="0 0 40 40" fill="none" xmlns="http://www.w3.org/2000/svg">
<path d="M20.4321 39.0158C19.6043 39.0158 20.2903 39.0158 20.2903 39.0158C20.2903 39.0158 20.2903 31.2422 20.2903 19.5664C20.2903 7.91035 20.2903 0.136744 20.2903 0.136744C20.2903 0.136744 19.6516 0.136719 20.4321 0.136719C31.27 0.136719 39.6142 9.45762 39.6142 19.5281C39.6142 29.9285 31.1771 39.0158 20.4321 39.0158Z" fill="#FF9F00"/>
<path d="M39.563 19.578C39.563 30.3161 30.8935 39.0212 20.1995 39.0212C9.50537 39.0212 0.835938 30.3161 0.835938 19.578C0.835938 8.83989 9.50537 0.134766 20.1995 0.134766C30.8935 0.134766 39.563 8.83989 39.563 19.578Z" fill="url(#paint0_linear_8702_338)"/>
<path d="M35.6769 19.5761C35.6769 28.1667 28.7415 35.1306 20.1861 35.1306C11.6307 35.1306 4.69531 28.1667 4.69531 19.5761C4.69531 10.9855 11.6307 4.02148 20.1861 4.02148C28.7415 4.02148 35.6769 10.9855 35.6769 19.5761Z" fill="#FFBB00"/>
<path d="M34.2255 19.5768C34.2255 27.3621 27.9403 33.6732 20.187 33.6732C12.4336 33.6732 6.14844 27.3621 6.14844 19.5768C6.14844 11.7915 12.4336 5.48047 20.187 5.48047C27.9403 5.48047 34.2255 11.7915 34.2255 19.5768Z" fill="url(#paint1_linear_8702_338)"/>
<path d="M20.8998 10.6276L23.2213 15.3509C23.371 15.6556 23.6605 15.8669 23.9955 15.9157L29.1868 16.6732C29.6085 16.7347 29.7768 17.255 29.4717 17.5536L25.7153 21.2303C25.4731 21.4675 25.3625 21.8092 25.4196 22.1442L26.3063 27.3357C26.3783 27.7574 25.9376 28.079 25.5604 27.8799L20.9172 25.4287C20.6177 25.2706 20.2598 25.2706 19.9603 25.4287L15.3171 27.8799C14.9399 28.079 14.4992 27.7574 14.5712 27.3357L15.4579 22.1442C15.515 21.8092 15.4044 21.4675 15.1622 21.2303L11.4059 17.5536C11.1007 17.255 11.269 16.7347 11.6907 16.6732L16.8821 15.9157C17.2171 15.8669 17.5065 15.6556 17.6562 15.3509L19.9777 10.6276C20.1663 10.2439 20.7112 10.2439 20.8998 10.6276Z" fill="url(#paint2_linear_8702_338)"/>
<path d="M23.7052 15.8386C23.8551 16.1433 24.1445 16.3546 24.4795 16.4034L29.6252 17.1543C29.6101 16.9264 29.4472 16.7129 29.1866 16.6748L23.9954 15.9173C23.8888 15.9018 23.7896 15.8646 23.6953 15.8184L23.7052 15.8386Z" fill="#E26500"/>
<path d="M15.0544 27.8222L15.941 22.6306C15.9982 22.2956 15.8878 21.954 15.6454 21.7168L15.2064 21.2871C15.4136 21.5206 15.51 21.8337 15.457 22.1446L14.5703 27.3361C14.5149 27.66 14.7626 27.9223 15.0513 27.9375C15.0494 27.8998 15.0476 27.862 15.0544 27.8222Z" fill="#E26500"/>
<path d="M12.1748 17.1593L17.366 16.4018C17.701 16.353 17.9904 16.1417 18.1403 15.837L20.4618 11.1136C20.5699 10.8937 20.7945 10.8043 21.0024 10.8364L20.8998 10.6276C20.7112 10.2439 20.1663 10.2439 19.9777 10.6276L17.6562 15.3509C17.5063 15.6556 17.2169 15.8669 16.8819 15.9157L11.6907 16.6732C11.269 16.7347 11.1007 17.255 11.4059 17.5536L11.8524 17.9909C11.6076 17.6878 11.7744 17.2176 12.1748 17.1593Z" fill="#E26500"/>
<mask id="mask0_8702_338" style="mask-type:alpha" maskUnits="userSpaceOnUse" x="0" y="0" width="40" height="40">
<path d="M20.3129 0.128906C9.60361 0.128906 0.921875 8.83383 0.921875 19.5721C0.921875 30.3102 9.60361 39.0154 20.3129 39.0154C31.0221 39.0154 39.7039 30.3102 39.7039 19.5721C39.7039 8.83383 31.0221 0.128906 20.3129 0.128906ZM20.3129 35.1267C11.7454 35.1267 4.80008 28.1627 4.80008 19.5721C4.80008 10.9815 11.7454 4.01755 20.3129 4.01755C28.8804 4.01755 35.8257 10.9815 35.8257 19.5721C35.8257 28.1627 28.8804 35.1267 20.3129 35.1267Z" fill="#231526"/>
<path d="M20.3163 5.47852C12.5519 5.47852 6.25781 11.7896 6.25781 19.5749C6.25781 27.3601 12.5519 33.6712 20.3163 33.6712C28.0806 33.6712 34.3748 27.3601 34.3748 19.5749C34.3748 11.7896 28.0806 5.47852 20.3163 5.47852Z" fill="#231526"/>
</mask>
<g mask="url(#mask0_8702_338)">
<g opacity="0.5">
<path d="M20.7527 52.6955L10.7813 64.611L-26.6484 33.1191L-16.677 21.2036L20.7527 52.6955Z" fill="white"/>
</g>
</g>
<defs>
<linearGradient id="paint0_linear_8702_338" x1="9.92324" y1="3.2381" x2="33.3106" y2="34.0297" gradientUnits="userSpaceOnUse">
<stop stop-color="#FFEA00"/>
<stop offset="0.5" stop-color="#FFC700"/>
<stop offset="1" stop-color="#FFA500"/>
</linearGradient>
<linearGradient id="paint1_linear_8702_338" x1="12.6011" y1="7.63108" x2="29.9117" y2="30.1936" gradientUnits="userSpaceOnUse">
<stop stop-color="#FFE900"/>
<stop offset="0.5" stop-color="#FFC700"/>
<stop offset="1" stop-color="#FFA600"/>
</linearGradient>
<linearGradient id="paint2_linear_8702_338" x1="20.3904" y1="10.2426" x2="20.3904" y2="27.8432" gradientUnits="userSpaceOnUse">
<stop stop-color="#FFAD00"/>
<stop offset="0.5" stop-color="#FF8F00"/>
<stop offset="1" stop-color="#FF7100"/>
</linearGradient>
</defs>
</svg>
