<svg width="40" height="40" viewBox="0 0 40 40" fill="none" xmlns="http://www.w3.org/2000/svg">
<path d="M19.7765 39.021C18.9258 39.021 19.7765 39.021 19.7765 39.021C19.7765 39.021 19.7765 31.2438 19.7765 19.568C19.7765 7.91202 19.7765 0.134766 19.7765 0.134766C19.7765 0.134766 18.9744 0.134766 19.7765 0.134766C30.8846 0.134766 39.1974 9.61329 39.1974 19.5293C39.1974 29.7855 30.7874 39.021 19.7765 39.021Z" fill="#999999"/>
<path d="M39.2341 19.5779C39.2341 30.3159 30.5281 39.021 19.7889 39.021C9.04974 39.021 0.34375 30.3159 0.34375 19.5779C0.34375 8.83984 9.04974 0.134766 19.7889 0.134766C30.5281 0.134766 39.2341 8.83984 39.2341 19.5779Z" fill="url(#paint0_linear_8702_302)"/>
<path d="M35.3701 19.574C35.3701 28.1646 28.4054 35.1285 19.8139 35.1285C11.2225 35.1285 4.25781 28.1646 4.25781 19.574C4.25781 10.9835 11.2225 4.01953 19.8139 4.01953C28.4054 4.01953 35.3701 10.9835 35.3701 19.574Z" fill="#B3B3B3"/>
<path d="M33.883 19.5787C33.883 27.3639 27.5713 33.675 19.7852 33.675C11.9992 33.675 5.6875 27.3639 5.6875 19.5787C5.6875 11.7935 11.9992 5.48242 19.7852 5.48242C27.5713 5.48242 33.883 11.7935 33.883 19.5787Z" fill="url(#paint1_linear_8702_302)"/>
<path d="M20.5108 10.6295L22.8421 15.3528C22.9924 15.6575 23.2831 15.8688 23.6195 15.9176L28.8328 16.6752C29.2563 16.7366 29.4252 17.2569 29.1188 17.5555L25.3466 21.2322C25.1034 21.4694 24.9923 21.8111 25.0497 22.1461L25.9401 27.3376C26.0124 27.7593 25.5699 28.0809 25.1911 27.8818L20.5283 25.4306C20.2275 25.2725 19.8681 25.2725 19.5673 25.4306L14.9046 27.8818C14.5258 28.0809 14.0832 27.7593 14.1555 27.3376L15.0459 22.1461C15.1033 21.8111 14.9923 21.4694 14.749 21.2322L10.9768 17.5555C10.6704 17.2569 10.8394 16.7366 11.2629 16.6752L16.4761 15.9176C16.8125 15.8688 17.1032 15.6575 17.2535 15.3528L19.5848 10.6295C19.7742 10.2459 20.3214 10.2459 20.5108 10.6295Z" fill="url(#paint2_linear_8702_302)"/>
<path d="M23.3146 15.8405C23.4651 16.1452 23.7558 16.3566 24.0922 16.4054L29.2596 17.1562C29.2444 16.9284 29.0809 16.7149 28.8191 16.6768L23.6061 15.9193C23.4989 15.9037 23.3994 15.8666 23.3047 15.8203L23.3146 15.8405Z" fill="#808080"/>
<path d="M14.6424 27.8241L15.5328 22.6326C15.5902 22.2976 15.4793 21.956 15.2359 21.7188L14.795 21.2891C15.0031 21.5226 15.0999 21.8356 15.0467 22.1465L14.1563 27.338C14.1007 27.6619 14.3494 27.9242 14.6393 27.9394C14.6373 27.9017 14.6356 27.864 14.6424 27.8241Z" fill="#808080"/>
<path d="M11.749 17.1612L16.9621 16.4037C17.2985 16.3549 17.5892 16.1436 17.7397 15.8389L20.071 11.1156C20.1795 10.8957 20.405 10.8062 20.6139 10.8383L20.5108 10.6295C20.3214 10.2459 19.7742 10.2459 19.5848 10.6295L17.2535 15.3528C17.103 15.6575 16.8123 15.8688 16.4759 15.9176L11.2629 16.6752C10.8394 16.7366 10.6704 17.2569 10.9768 17.5555L11.4252 17.9928C11.1795 17.6897 11.3469 17.2196 11.749 17.1612Z" fill="#808080"/>
<mask id="mask0_8702_302" style="mask-type:alpha" maskUnits="userSpaceOnUse" x="0" y="0" width="40" height="40">
<path d="M19.7967 0.128906C9.05755 0.128906 0.351562 8.83379 0.351562 19.572C0.351562 30.3101 9.05755 39.0152 19.7967 39.0152C30.5359 39.0152 39.2419 30.3101 39.2419 19.572C39.2419 8.83379 30.5359 0.128906 19.7967 0.128906ZM19.7967 35.1265C11.2053 35.1265 4.2406 28.1626 4.2406 19.572C4.2406 10.9815 11.2053 4.01753 19.7967 4.01753C28.3882 4.01753 35.3529 10.9815 35.3529 19.572C35.3529 28.1626 28.3882 35.1265 19.7967 35.1265Z" fill="#231526"/>
<path d="M19.7852 5.47852C11.9992 5.47852 5.6875 11.7896 5.6875 19.5748C5.6875 27.36 11.9992 33.6711 19.7852 33.6711C27.5713 33.6711 33.883 27.36 33.883 19.5748C33.883 11.7896 27.5713 5.47852 19.7852 5.47852Z" fill="#231526"/>
</mask>
<g mask="url(#mask0_8702_302)">
<g opacity="0.5">
<path d="M48.9242 23.9962L38.9249 35.9116L1.39062 4.41992L11.3899 -7.49552L48.9242 23.9962Z" fill="white"/>
</g>
</g>
<defs>
<linearGradient id="paint0_linear_8702_302" x1="9.46937" y1="3.23808" x2="32.83" y2="34.1243" gradientUnits="userSpaceOnUse">
<stop stop-color="#BFBFBF"/>
<stop offset="0.5" stop-color="#B3B3B3"/>
<stop offset="1" stop-color="#A6A6A6"/>
</linearGradient>
<linearGradient id="paint1_linear_8702_302" x1="12.1674" y1="7.63303" x2="29.4589" y2="30.2658" gradientUnits="userSpaceOnUse">
<stop stop-color="#BFBFBF"/>
<stop offset="0.5" stop-color="#BFBFBF"/>
<stop offset="1" stop-color="#BFBFBF"/>
</linearGradient>
<linearGradient id="paint2_linear_8702_302" x1="19.9992" y1="10.2445" x2="19.9992" y2="27.845" gradientUnits="userSpaceOnUse">
<stop stop-color="#A6A6A6"/>
<stop offset="0.5" stop-color="#A6A6A6"/>
<stop offset="1" stop-color="#A6A6A6"/>
</linearGradient>
</defs>
</svg>
